{
  "accessors": [
    {
      "bufferView": 2,
      "componentType": 5126,
      "count": 65532,
      "max": [
        23.414707183837891,
        8.1262741088867188,
        15.816007614135742
      ],
      "min": [
        -15.749173164367676,
        -36.823490142822266,
        -8.3793487548828125
      ],
      "type": "VEC3"
    },
    {
      "bufferView": 2,
      "byteOffset": 786384,
      "componentType": 5126,
      "count": 65532,
      "max": [
        0.99995940923690796,
        0.99993884563446045,
        0.99978780746459961
      ],
      "min": [
        -0.99990975856781006,
        -0.99994778633117676,
        -0.99999856948852539
      ],
      "type": "VEC3"
    },
    {
      "bufferView": 3,
      "componentType": 5126,
      "count": 65532,
      "max": [
        0.99999213218688965,
        0.99989646673202515,
        0.99999535083770752,
        1
      ],
      "min": [
        -0.99997544288635254,
        -0.99997633695602417,
        -0.99994617700576782,
        -1
      ],
      "type": "VEC4"
    },
    {
      "bufferView": 1,
      "componentType": 5126,
      "count": 65532,
      "max": [
        1.0129879713058472,
        1.0002460479736328
      ],
      "min": [
        0.0088659999892115593,
        0.0029919999651610851
      ],
      "type": "VEC2"
    },
    {
      "bufferView": 0,
      "componentType": 5125,
      "count": 315177,
      "max": [
        65531
      ],
      "min": [
        0
      ],
      "type": "SCALAR"
    },
    {
      "bufferView": 2,
      "byteOffset": 1572768,
      "componentType": 5126,
      "count": 65532,
      "max": [
        23.496047973632812,
        4.4034328460693359,
        12.313959121704102
      ],
      "min": [
        -19.781181335449219,
        -37.020004272460938,
        -3.4845490455627441
      ],
      "type": "VEC3"
    },
    {
      "bufferView": 2,
      "byteOffset": 2359152,
      "componentType": 5126,
      "count": 65532,
      "max": [
        0.99984931945800781,
        0.99949747323989868,
        0.99932509660720825
      ],
      "min": [
        -0.99992167949676514,
        -0.99924522638320923,
        -0.99999397993087769
      ],
      "type": "VEC3"
    },
    {
      "bufferView": 3,
      "byteOffset": 1048512,
      "componentType": 5126,
      "count": 65532,
      "max": [
        0.99995970726013184,
        0.99995273351669312,
        0.99987798929214478,
        1
      ],
      "min": [
        -0.9999963641166687,
        -0.99988991022109985,
        -0.99906802177429199,
        -1
      ],
      "type": "VEC4"
    },
    {
      "bufferView": 1,
      "byteOffset": 524256,
      "componentType": 5126,
      "count": 65532,
      "max": [
        0.98887699842453003,
        0.99951297044754028
      ],
      "min": [
        0.0042880000546574593,
        0.0042750001884996891
      ],
      "type": "VEC2"
    },
    {
      "bufferView": 0,
      "byteOffset": 1260708,
      "componentType": 5125,
      "count": 334416,
      "max": [
        65531
      ],
      "min": [
        0
      ],
      "type": "SCALAR"
    },
    {
      "bufferView": 2,
      "byteOffset": 3145536,
      "componentType": 5126,
      "count": 56962,
      "max": [
        23.301586151123047,
        1.6288360357284546,
        14.716718673706055
      ],
      "min": [
        -19.703723907470703,
        -36.919681549072266,
        -7.8161988258361816
      ],
      "type": "VEC3"
    },
    {
      "bufferView": 2,
      "byteOffset": 3829080,
      "componentType": 5126,
      "count": 56962,
      "max": [
        0.99990403652191162,
        0.99980634450912476,
        0.99994403123855591
      ],
      "min": [
        -0.99995607137680054,
        -0.99992877244949341,
        -0.99999809265136719
      ],
      "type": "VEC3"
    },
    {
      "bufferView": 3,
      "byteOffset": 2097024,
      "componentType": 5126,
      "count": 56962,
      "max": [
        0.99974685907363892,
        0.99985945224761963,
        0.99988442659378052,
        1
      ],
      "min": [
        -0.99999737739562988,
        -0.99950462579727173,
        -0.99987179040908813,
        -1
      ],
      "type": "VEC4"
    },
    {
      "bufferView": 1,
      "byteOffset": 1048512,
      "componentType": 5126,
      "count": 56962,
      "max": [
        0.99319899082183838,
        0.99956697225570679
      ],
      "min": [
        0.0066559999249875546,
        0.0031870000530034304
      ],
      "type": "VEC2"
    },
    {
      "bufferView": 0,
      "byteOffset": 2598372,
      "componentType": 5125,
      "count": 262821,
      "max": [
        56961
      ],
      "min": [
        0
      ],
      "type": "SCALAR"
    }
  ],
  "asset": {
    "generator": "Sketchfab (OSG glTF plugin)",
    "version": "2.0"
  },
  "bufferViews": [
    {
      "buffer": 0,
      "byteLength": 3649656,
      "byteOffset": 0,
      "name": "floatBufferViews",
      "target": 34963
    },
    {
      "buffer": 0,
      "byteLength": 1504208,
      "byteOffset": 3649656,
      "byteStride": 8,
      "name": "floatBufferViews",
      "target": 34962
    },
    {
      "buffer": 0,
      "byteLength": 4512624,
      "byteOffset": 5153864,
      "byteStride": 12,
      "name": "floatBufferViews",
      "target": 34962
    },
    {
      "buffer": 0,
      "byteLength": 3008416,
      "byteOffset": 9666488,
      "byteStride": 16,
      "name": "floatBufferViews",
      "target": 34962
    }
  ],
  "buffers": [
    {
      "byteLength": 12674904,
      "uri": "scene.bin"
    }
  ],
  "extensionsRequired": [
    "KHR_materials_pbrSpecularGlossiness"
  ],
  "extensionsUsed": [
    "KHR_materials_pbrSpecularGlossiness"
  ],
  "images": [
    {
      "uri": "textures/Car_VW_R01_Museo_acuatico_diffuse.jpeg"
    }
  ],
  "materials": [
    {
      "doubleSided": false,
      "emissiveFactor": [
        0,
        0,
        0
      ],
      "extensions": {
        "KHR_materials_pbrSpecularGlossiness": {
          "diffuseFactor": [
            1,
            1,
            1,
            1
          ],
          "diffuseTexture": {
            "index": 0,
            "texCoord": 0
          },
          "glossinessFactor": 0,
          "specularFactor": [
            0,
            0,
            0
          ]
        }
      },
      "name": "Car_VW_R01_Museo_acuatico",
      "occlusionFactor": 1
    }
  ],
  "meshes": [
    {
      "primitives": [
        {
          "attributes": {
            "NORMAL": 1,
            "POSITION": 0,
            "TANGENT": 2,
            "TEXCOORD_0": 3
          },
          "indices": 4,
          "material": 0,
          "mode": 4
        }
      ]
    },
    {
      "primitives": [
        {
          "attributes": {
            "NORMAL": 6,
            "POSITION": 5,
            "TANGENT": 7,
            "TEXCOORD_0": 8
          },
          "indices": 9,
          "material": 0,
          "mode": 4
        }
      ]
    },
    {
      "primitives": [
        {
          "attributes": {
            "NORMAL": 11,
            "POSITION": 10,
            "TANGENT": 12,
            "TEXCOORD_0": 13
          },
          "indices": 14,
          "material": 0,
          "mode": 4
        }
      ]
    }
  ],
  "nodes": [
    {
      "children": [
        1
      ],
      "name": "RootNode (gltf orientation matrix)",
      "rotation": [
        -0.70710678118654746,
        -0,
        -0,
        0.70710678118654757
      ]
    },
    {
      "children": [
        2
      ],
      "matrix": [
        0.90185058116912842,
        0.42201623320579529,
        0.092562615871429443,
        0,
        0.35599997639656067,
        -0.84724700450897217,
        0.3942544162273407,
        0,
        0.24480515718460083,
        -0.32260626554489136,
        -0.91432797908782959,
        0,
        4.4151124954223633,
        -26.27116584777832,
        12.641860961914062,
        1
      ],
      "name": "RootNode (model correction matrix)"
    },
    {
      "children": [
        6
      ],
      "name": "Car VW R01 Museo acuatico.obj.cleaner.materialmerger.gles"
    },
    {
      "mesh": 0,
      "name": ""
    },
    {
      "mesh": 1,
      "name": ""
    },
    {
      "mesh": 2,
      "name": ""
    },
    {
      "children": [
        3,
        4,
        5
      ],
      "name": "Geode"
    }
  ],
  "samplers": [
    {
      "magFilter": 9729,
      "minFilter": 9987,
      "wrapS": 10497,
      "wrapT": 10497
    }
  ],
  "scene": 0,
  "scenes": [
    {
      "name": "OSG_Scene",
      "nodes": [
        0
      ]
    }
  ],
  "textures": [
    {
      "sampler": 0,
      "source": 0
    }
  ]
}

